<?xml version="1.0" encoding="utf-8"?>
<!-- Generator: Adobe Illustrator 22.1.0, SVG Export Plug-In . SVG Version: 6.00 Build 0)  -->
<svg version="1.1" id="Livello_1" xmlns="http://www.w3.org/2000/svg" xmlns:xlink="http://www.w3.org/1999/xlink" x="0px" y="0px"
	 viewBox="0 0 281.7 282.2" style="enable-background:new 0 0 281.7 282.2;" xml:space="preserve">
<style type="text/css">
	.st0{fill:#00ACAC;}
</style>
<path class="st0" d="M249.4,151.7v-25l30.3-28.5l-12.5-29.6l-44.3,2.6l-16-15.1l1.1-44.3L178,0.6l-26.3,32.2h-25L98,1.7L67.7,14.4
	L71.6,58l-16,16.4l-43.4-0.7L0.6,104.2L33,131.4v24.8L1.9,183.8l13.6,30.5l42.4-3.2l16.6,16.6l-1.1,41.4l31.3,12.5l25.6-32.2h25.6
	l28.9,30.3l29.2-13.6l-3.3-41.2l16.7-17.1l42.5,1.1l11.2-31.1L249.4,151.7z M211.4,132l-14.3,9.2c0,0-1.2,2.2-3.5,0
	s-7.7-12.9-22,1.9s-22.4,38.6-4.8,44.4c12.2,0.7,22.5-12.7,27.1-24.8c10.4-6.6,17.4-11.7,17.4-11.7v32.1l-68.9,40.1l-27.5-15
	l0.2-21.2c0,0,15.8-0.5,8.1-23.7c-7.7-23.2-23.8-32.7-33.2-22.1s2.8,31.5,7.2,35.9c-0.3,11.5-0.3,21-0.3,21l-26.5-15.8v-81.9
	l26.1-14.7l17.9,9.5c0,0-7.6,18.4,22.7,21.9s48.3-25.6,12.5-32.4c-7.7-1.3-18.7,0-18.7,0L114.8,75l27.3-15.3l69.2,40.7L211.4,132
	L211.4,132z"/>
</svg>
