<svg id="Layer_1" data-name="Layer 1" xmlns="http://www.w3.org/2000/svg" viewBox="0 0 185.18 185.13"><defs><style>.cls-1{fill:#00acac;}</style></defs><title>Artboard 1</title><path class="cls-1" d="M57.64,6.53a9.66,9.66,0,0,0,0-2C57.45,1.93,60.11,0,62.14,0Q92.56,0,123,0a4.82,4.82,0,0,1,4.58,4.65c-.1,11.92,0,23.84,0,35.76v1.84H129c6.8,0,13.6.06,20.4,0a19.57,19.57,0,0,1,14.14,5.42,18.34,18.34,0,0,1,5.26,8.48,1.76,1.76,0,0,0,2.08,1.51c3.07-.11,6.16.06,9.24-.07a4.92,4.92,0,0,1,5.05,5q-.12,58.8,0,117.6a5,5,0,0,1-4.91,4.92q-56-.07-112.07,0c-21,0-42.08,0-63.12,0A4.88,4.88,0,0,1,0,180Q.08,121.34,0,62.66c0-3.26,1.8-5,5.09-5H57.54V15H56.15c-5.36,0-10.72,0-16.08,0a12.32,12.32,0,0,0-4.65.4c-3.24,1.19-5.92,3.19-7.1,6.48-1.74,4.86-1.05,10.38,4.29,13.89A11.77,11.77,0,0,0,39,37.46c3.84.09,7.68,0,11.52.07a4.58,4.58,0,0,1,3.84,3.2,3.86,3.86,0,0,1-2.77,4.42,9.52,9.52,0,0,1-2.25.3c-3.44,0-6.88,0-10.32,0-5.68.09-10.23-2.27-14.17-6.21a17.33,17.33,0,0,1-5.25-10.65c-.59-5.58.59-10.76,4.5-15.14a20,20,0,0,1,9-6.05,18.24,18.24,0,0,1,5.12-.85c5.92-.1,11.84,0,17.76,0Zm0,59.61H8.57V176.56h168V66.06H135.21a4.43,4.43,0,0,1-4.61-4.41,4.57,4.57,0,0,1,4.67-4h23.64c.45,0,.91,0,1.39-.07-.93-3.79-5.46-6.78-9.26-6.82-7.44-.08-14.88,0-22.32,0-.35,0-.7,0-1.2.07v1.94c0,15.6,0-7.8,0,7.8,0,1.43-.24,2.86-.2,4.29.06,1.81-1.42,4-3.14,4.23a24.51,24.51,0,0,1-3.2.26c-2.59,0-5.18,0-7.77,0H82.12c-.36,0-.72,0-1.08,0a4.29,4.29,0,0,1-3.9-5.74,4.87,4.87,0,0,1,4.44-2.69H119V8.56H66.19V60.85c1.07,0,2,0,3,0a4.75,4.75,0,0,1,4.63,4.6c-.11,8.2,0,3.4,0,11.6v1.57h37.68c0-3.53,0,5.14,0,1.81,0-1.88,0-3.77.21-5.63a3.76,3.76,0,0,1,4.2-3.17c2.1.21,3.94,1.59,4,3.85.06,6.48,0,1,0,7.44a4.15,4.15,0,0,1-3.17,3.84c-1.43.24-2.9.26-4.44.39,0,.44-.06.86-.06,1.29,0,3.2.08,6.41,0,9.6a4.32,4.32,0,0,1-1,2.66c-5.25,5.38-10.59,10.67-15.91,16a3.82,3.82,0,0,1-5.15,0q-8-8-15.94-16a3.84,3.84,0,0,1-.82-1.53A6.49,6.49,0,0,1,73,97.32c0-3.38,0-6.77,0-10.3-1.09,0-2-.06-3,0a4.75,4.75,0,0,1-4.74-4.71c.12-8.16,0-3.32,0-11.48V69.3c-1.09,0-2,0-3,0a4.74,4.74,0,0,1-4.74-4.71m46.13,22.5H81.44c0,2.9,0,5.73,0,8.55a2.71,2.71,0,0,0,.68,1.65c3.15,3.23,6.36,6.41,9.56,9.6.27.27.57.51.94.84,3.63-3.64,7.18-7.2,10.72-10.78a1.3,1.3,0,0,0,.33-.84C103.73,93.15,103.72,90.2,103.72,87.09Z"/><path class="cls-1" d="M78.65,135,72,139.25l9.5,3.5c4.53,1.68,9.06,3.35,13.58,5.05a1.87,1.87,0,0,0,1.93-.19c5.66-3.74,11.35-7.42,17-11.14a6.7,6.7,0,0,0,1.42-1.18c.71-.82.37-1.67-.71-1.85a7.46,7.46,0,0,0-1.16,0H71.9c-2.27,0-3.69-1.08-4.14-3.11a3.85,3.85,0,0,1,3.44-4.6c.39,0,.78,0,1.17,0h41.32c.39,0,.88.12,1.14-.06a2.14,2.14,0,0,0,.9-1.25c0-.32-.59-.75-1-1-.22-.14-.6,0-.91,0H96.47c-3.51,0-5-1.64-4.64-5.27h2.41s.11.07.11.13c.22,2.4.21,2.4,2.6,2.4,5.82,0,11.64,0,17.46,0a3.88,3.88,0,0,1,3.92,5.09,3.59,3.59,0,0,1-3.11,2.6,12.6,12.6,0,0,1-1.74.08h-41c-.91,0-2-.22-2.11,1.17-.06.89.56,1.22,2.09,1.22,13.81,0,27.62.06,41.44,0,3.38,0,4.69,2.19,4.67,4.74-.06,8.3,0,16.6,0,24.9a2.4,2.4,0,0,1-1.15,2.22q-9.92,6.81-19.79,13.69a2.34,2.34,0,0,1-2.46.3q-12.93-5-25.89-9.92a2.25,2.25,0,0,1-1.73-2.46c.06-8,0-16,0-24a2.17,2.17,0,0,1,1.17-2.18,12.65,12.65,0,0,0,2.54-1.63C73.39,134.52,75.86,135,78.65,135Zm19,38c.29-.15.4-.19.49-.25,5.68-4,11.37-7.93,17-11.95a1.94,1.94,0,0,0,.64-1.43c0-6.59,0-13.18,0-19.77,0-.32,0-.64-.1-1.11-6,3.89-11.76,7.67-17.53,11.49a1.72,1.72,0,0,0-.53,1.26c0,5.2,0,10.39,0,15.59ZM70.44,141.55a2.4,2.4,0,0,0-.09.44c0,7.18,0,14.35,0,21.52,0,.74.4.88.93,1.07l19.46,7.21,4.18,1.54a7.76,7.76,0,0,0,.1-.83c0-7,0-14,0-21.05,0-.69-.31-.91-.88-1.12-4.79-1.76-9.57-3.55-14.35-5.32Z"/><path class="cls-1" d="M82.92,148.87c2.27.91,4.34,1.67,6.34,2.55a5.1,5.1,0,0,1,3.28,5.12c-.05,3.25,0,6.5,0,9.76,0,2.37-.9,3-3.16,2.27-1.94-.63-3.86-1.35-5.76-2.09a1.21,1.21,0,0,1-.63-.88C82.91,160.1,82.92,154.6,82.92,148.87Zm4.65,4.54-.55.21c0,3.53,0,7,0,10.57,0,.28.43.56.67.84.2-.27.58-.54.58-.81.07-3.1.12-6.2.07-9.29C88.36,154.42,87.85,153.91,87.57,153.41Z"/><path class="cls-1" d="M75.07,152.81c2.32.52,2.34.52,2.31-1.93,0-.83.21-1.86-1.32-2l-.21,2.72-3.57-1.29c-.09,0-.24-.15-.24-.21a18.47,18.47,0,0,1,.43-3.74c.3-1,1.4-.77,2.24-.67,3.09.37,5.67,2.36,6.25,4.93a8.73,8.73,0,0,1,.09,3.1c-.09.57-.72,1.06-1.15,1.65,2,2.17,1.56,5,1.11,7.7a2,2,0,0,1-2.44,1.66,8.17,8.17,0,0,1-5.58-3c-1.21-1.57-1-3.44-1.09-5.24,0-.3,0-.61,0-1.13,1.3.47,2.49.85,3.64,1.34.2.08.3.58.31.89.06,1,0,2,.1,3,0,.36.48.68.74,1,.22-.34.59-.67.62-1a11.26,11.26,0,0,0,0-2.9c-.11-.66-.46-1.65-1-1.83C74.67,155.28,74.92,154.08,75.07,152.81Z"/></svg>