<svg id="Layer_1" data-name="Layer 1" xmlns="http://www.w3.org/2000/svg" viewBox="0 0 184.4 184.52"><defs><style>.cls-1{fill:#00acac;}</style></defs><title>Artboard 1</title><path class="cls-1" d="M96.06,27.07h1.51q10.5,0,21,0c2.7,0,4.31,1.4,4.35,3.7a3.64,3.64,0,0,1-3.62,3.93c-2.15.08-4.32,0-6.48,0-.43,0-.85,0-1.41.08V36.1c0,6.72,0,13.44,0,20.16,0,1.21.33,1.55,1.55,1.55q25.44-.06,50.88,0h1.26v-23h-34c-2.32,0-3.53-.76-4.15-2.54a3.73,3.73,0,0,1,3.07-5,11.75,11.75,0,0,1,1.68-.08q21.72,0,43.44,0c1.16,0,1.6-.22,1.55-1.5-.1-2.87-.09-5.76,0-8.63,0-1.21-.38-1.55-1.5-1.44a17.47,17.47,0,0,1-2.4,0,3.68,3.68,0,0,1-3.8-3.89c0-2.51,0-5,0-7.55A3.84,3.84,0,1,1,176.69,4c0,.92,0,1.84,0,2.76s.32,1.14,1.14,1.1,1.76,0,2.64,0a3.69,3.69,0,0,1,3.9,4c0,6.44,0,12.88,0,19.32a3.47,3.47,0,0,1-3.12,3.42c-2.24.11-4.48.07-6.72.09h-1.66V36.2c0,6.72,0,13.44,0,20.16,0,1.07.25,1.5,1.4,1.45,2-.09,4-.05,6,0,2.73,0,4.13,1.44,4.13,4.16,0,12.56,0,25.12,0,37.68,0,1.83-1,3.06-2,4.34-4.5,5.64-9,11.26-13.51,16.91a5,5,0,0,1-4.39,2.18c-2.26-.11-4.54,0-7,0v1.76q0,27.6,0,55.2c0,1.23,0,2.48-1.09,3.27a9.69,9.69,0,0,1-2.4,1.16,3.35,3.35,0,0,1-1.19.05q-56.7,0-113.39,0a38.47,38.47,0,0,1-20.1-5.45C8.75,172.71,2,163.54.39,151.18a37.14,37.14,0,0,1,8.82-30,38.18,38.18,0,0,1,15.57-11,35.92,35.92,0,0,1,10.83-2.37c2.79-.17,5.58-.17,8.27-1.16a14.21,14.21,0,0,0,9.67-11.62,14.79,14.79,0,0,0-4.34-13.58,15.13,15.13,0,0,0-11-4.5,39.64,39.64,0,0,1-17.45-4.11C10.44,67.76,4,59.54,1.26,48.42a38.67,38.67,0,0,1,8-34.78A37.46,37.46,0,0,1,29.4,1.27C34.52.06,39.81-.52,45,.59A11.36,11.36,0,0,1,51.21,19a11.24,11.24,0,0,1-9,4.23,33.59,33.59,0,0,0-7.24.65,15.57,15.57,0,0,0-11.9,15.45c.3,7.47,6.71,14.13,14.18,14.5,5.41.26,10.74.8,15.85,2.79C62.58,60.31,69.54,66.57,73.48,76a41.59,41.59,0,0,1,3.33,18.82,37.53,37.53,0,0,1-7.63,20.59,37.64,37.64,0,0,1-24.83,14.87,61.44,61.44,0,0,1-6.93.53,15.1,15.1,0,0,0-14.15,13,15.5,15.5,0,0,0,9.44,16.47,17.53,17.53,0,0,0,6.75,1.2c6.76,0,13.52,0,20.28,0q25.38,0,50.76,0a7.11,7.11,0,0,1,2.9.52,3.73,3.73,0,0,1,1.77,4.21,3.63,3.63,0,0,1-3.41,2.86c-1.91.08-3.84,0-5.76,0H38.45a22.67,22.67,0,0,1-16.65-7,23.54,23.54,0,0,1-3.07-28.27C23,127.15,29.18,123.72,37,123.19c3.92-.27,7.8-.48,11.55-1.84a30.71,30.71,0,0,0,14-10.06,29.18,29.18,0,0,0,6.56-20.05c-.47-8.53-3.21-16.2-9.79-22.06A29.79,29.79,0,0,0,43,62c-3.28-.43-6.64-.39-9.87-1C24.07,59.21,16.66,50.85,15.6,41.69a22.25,22.25,0,0,1,4.07-16.32c4.83-6.57,11.5-9.66,19.58-9.82,1,0,1.93,0,2.88,0a4,4,0,0,0,4-3.69,3.83,3.83,0,0,0-3.83-4c-5.55-.23-11,.28-16.17,2.58A30.39,30.39,0,0,0,15,18.85,29.73,29.73,0,0,0,8,41.58c.73,7.67,3.56,14.38,9.34,19.65A29.35,29.35,0,0,0,32.82,68.7c3.14.48,6.36.52,9.52,1A22.86,22.86,0,0,1,61,87.34a23.75,23.75,0,0,1-2.82,17.33,20.34,20.34,0,0,1-12.79,9.58,48.29,48.29,0,0,1-8.74,1.22,30.66,30.66,0,0,0-17.26,6.66,30.33,30.33,0,0,0-7.7,38.69A31.26,31.26,0,0,0,20.93,171a30,30,0,0,0,14,5.44,62,62,0,0,0,6.81.36q32.82,0,65.64,0H119V123.05h-2.85a16.16,16.16,0,0,0-2.51,0c-3.13.49-5.12-1-7-3.38-4.31-5.64-8.82-11.12-13.26-16.66a5.22,5.22,0,0,1-1.23-3.4q0-18.78,0-37.56c0-2.88,1.36-4.24,4.26-4.28l6.84,0a1.2,1.2,0,0,0,.32-.12V34.81c-.47,0-.94-.08-1.4-.08-3.24,0-6.48,0-9.72,0-2.72,0-4.14-1.46-4.14-4.15q0-9.24,0-18.48c0-2.74,1.36-4.14,4.08-4.22q1.38,0,2.76,0c.62,0,.86-.24.84-.85,0-1,0-2,0-3a3.83,3.83,0,0,1,7.66,0q.06,3.9,0,7.8A3.62,3.62,0,0,1,100,15.51c-1,.05-2.08,0-3.11.07-.31,0-.82.43-.82.67C96.05,19.8,96.06,23.35,96.06,27.07Zm3.83,38.47V94.87c0,.64-.1,1.32.91,1.32l11.38,0c2.35,0,4.71,0,7.06,0a3.52,3.52,0,0,1,3.38,2.25,3.7,3.7,0,0,1-3.29,5.32c-4.31.11-8.63,0-13,0-.65,0-1.3.06-2.23.1,3,3.82,5.89,7.4,8.8,10.94a2.16,2.16,0,0,0,1.48.51q23.87,0,47.74,0a2.65,2.65,0,0,0,1.8-.86c2-2.34,3.88-4.77,5.79-7.17.84-1.07,1.66-2.16,2.67-3.47H131.94c-.56,0-1.13,0-1.68,0a3.81,3.81,0,0,1-1.64-7.08,6.71,6.71,0,0,1,2.78-.52q22,0,43.91,0c1.09,0,1.41-.29,1.41-1.4,0-9.32,0-18.63,0-27.95,0-.42,0-.85-.07-1.32Zm49.87,88.83c-.54.28-.89.44-1.23.64-6.94,4-13.86,8-20.82,12a1.58,1.58,0,0,0-.95,1.58c0,2.32.06,4.64,0,6.95,0,1,.37,1.29,1.33,1.28,6.83,0,13.67,0,20.5,0,.38,0,.76-.06,1.18-.09Zm.05-23.06c-.58.3-.94.46-1.28.65q-10.41,6-20.83,12a1.58,1.58,0,0,0-.94,1.59c0,4,0,8,0,12,0,.26,0,.51.1,1l5.41-3.14c5.6-3.24,11.2-6.46,16.78-9.72a1.46,1.46,0,0,0,.71-.95C149.83,140.34,149.81,136,149.81,131.31Zm-23,4.22,21-12.14-.07-.24h-21Z"/></svg>