<svg id="Layer_1" data-name="Layer 1" xmlns="http://www.w3.org/2000/svg" viewBox="0 0 184.35 184.35"><defs><style>.cls-1{fill:#00acac;}</style></defs><title>Artboard 1</title><path class="cls-1" d="M47.62,146.09a1.73,1.73,0,0,0-.16-.22c-2.63-1.63-1.79-1.63-3.83.4C37,152.84,30.45,159.45,23.85,166c-2.48,2.47-6,1.66-6.89-1.58a3.35,3.35,0,0,1,.8-3.35q9.7-9.76,19.48-19.46c.43-.43.82-.88,1.24-1.31,1.44-1.44,1.47-1.79.06-3.22a1.16,1.16,0,0,0-1-.07q-7.22,2.91-14.41,5.88c-.92.38-1.83.79-2.77,1.13a3.87,3.87,0,1,1-2.79-7.21c3.23-1.36,6.49-2.67,9.74-4,2.32-1,4.6-2,7-2.86,1.51-.52.77-1.45.74-2.3s-.71-.87-1.37-.87H8a38.13,38.13,0,0,1-4.66-.16A3.6,3.6,0,0,1,0,122.42a3.71,3.71,0,0,1,3.85-3.35c4.76,0,9.52,0,14.28,0,5.12,0,10.24,0,15.36,0,1,0,1.4-.29,1.52-1.21s.5-1.62-.82-2.14c-5.31-2.07-10.56-4.32-15.85-6.45-1.87-.76-3.33-1.75-3.33-4a3.82,3.82,0,0,1,5.47-3.54c3.74,1.51,7.45,3.08,11.17,4.62,1.81.75,3.64,1.44,5.42,2.25,1,.45,1.56.29,2-.69a6.84,6.84,0,0,1,.9-1.3c-1.18-1.07-2.4-2.08-3.53-3.2q-9.1-9-18.17-18.14c-2.09-2.09-1.81-5.21.56-6.53a3.92,3.92,0,0,1,4.46.55C27.15,83.12,31,87,34.82,90.8L44.1,100c.39.38.75.81,1.17,1.28l2.38-1.55-3.11-7.54c-1.4-3.4-2.83-6.78-4.19-10.19A3.88,3.88,0,0,1,41,77.63a3.42,3.42,0,0,1,4.15-.9,4.79,4.79,0,0,1,2.19,2.19c2,4.48,3.81,9,5.69,13.57.45,1.07,1,2.12,1.31,3.22s.91,1,1.72.83,1.58-.14,1.57-1.44c-.07-9,0-17.92,0-26.88,0-1,0-1.92,0-2.88a3.84,3.84,0,1,1,7.67,0q0,14.76,0,29.51c0,1,.19,1.5,1.29,1.68s1.64,0,2.11-1.12c2.21-5.55,4.54-11.07,6.86-16.58a3.58,3.58,0,0,1,3.55-2.38,3.34,3.34,0,0,1,3.49,2.4,6,6,0,0,1-.18,3.46C80.19,87.9,77.83,93.45,75.53,99c-.09.22-.16.44-.25.71l2.42,1.63c1.49-1.55,3-3.14,4.51-4.68,4.79-4.81,9.6-9.59,14.4-14.4s9.8-9.84,14.71-14.75c4.68-4.69,9.39-9.35,14.07-14,3-3,6-6.14,9.09-9.19,3.29-3.3,6.64-6.55,9.94-9.85q5.29-5.28,10.56-10.59L165.4,13.44C168.64,10.2,172,7,175.12,3.7a4.09,4.09,0,0,1,5.78-.05c1.5,1.65,1.32,4-.47,5.8q-7.5,7.52-15,15c-2.8,2.79-5.63,5.56-8.44,8.35a3.77,3.77,0,0,0-.39.59c1.89,1.25,3.77,2.37,5.53,3.66a54.24,54.24,0,0,1,13.39,14,53,53,0,0,1,8.25,21.64,53.68,53.68,0,0,1-3.83,29.42,52.25,52.25,0,0,1-13.23,18.45,51.33,51.33,0,0,1-24,12.37,82.77,82.77,0,0,1-10,1.28,3.81,3.81,0,1,1-.67-7.58,52.83,52.83,0,0,0,11.32-1.82,46,46,0,0,0,27.82-22.51,45.79,45.79,0,0,0,2.94-36.44,44.6,44.6,0,0,0-14.33-20.7c-2.53-2-5.41-3.65-8.11-5.47-.78-.53-1.32-.34-1.95.31-1.56,1.6-3.2,3.11-4.88,4.73,1.94,1,3.68,1.9,5.35,2.87a38.1,38.1,0,0,1,18.39,27.77,38.47,38.47,0,0,1-22.18,40.21,35.05,35.05,0,0,1-14,3.3,3.81,3.81,0,0,1-.61-7.59,32.17,32.17,0,0,0,9.11-1.85c8.77-3.34,15.08-9.31,18.3-18.11,4-11,2.21-21.2-5.16-30.35a30.53,30.53,0,0,0-13.8-9.56,2.1,2.1,0,0,0-2.53.58q-26.52,26.59-53.1,53.13a16.18,16.18,0,0,1-1.49,1.23c0,.43,0,.53.07.58,1.37,2.06,1.37,2.07,3.66,1.12l15.27-6.31a3.87,3.87,0,1,1,3.4,6.94c-4.84,2.08-9.73,4-14.59,6-.78.32-1.55.66-2.32,1s-1.3.43-1,1.42.13,1.93,1.69,1.9c5-.1,10,0,15,0,4.83,0,9.67,0,14.51,0a3.78,3.78,0,0,1,3.71,5.26,3.73,3.73,0,0,1-3.88,2.44c-5.55,0-11.11-.09-16.66-.09-4.43,0-8.86.08-13.28.12-.8,0-.94.55-.93,1.12s-.78,1.39.45,1.88c4.44,1.78,8.84,3.65,13.26,5.49,1.36.57,2.75,1.08,4.08,1.7a3.8,3.8,0,0,1,1.92,4.95,3.67,3.67,0,0,1-4.82,2.16c-4.71-1.86-9.38-3.84-14.07-5.76l-4-1.64a13.08,13.08,0,0,0-1.16,1.69,1.17,1.17,0,0,0,.11,1.07c3.41,3.48,6.85,6.92,10.29,10.36l11.26,11.27a4,4,0,0,1,.17,4.78,3.81,3.81,0,0,1-4.59,1.26,7.41,7.41,0,0,1-2-1.45q-10.12-10.06-20.2-20.19a5.57,5.57,0,0,1-.66-1c-2.67,1.32-2.7,1.33-1.75,3.64,2.11,5.13,4.26,10.25,6.37,15.37,1.27,3.08-.51,5.95-3.59,5.8a3.73,3.73,0,0,1-3.48-2.49c-2.3-5.61-4.66-11.19-6.92-16.82-.34-.85-.76-1-1.52-.79s-1.72,0-1.71,1.41c.07,9.8,0,19.6,0,29.4a5.22,5.22,0,0,1-.55,2.51,3.82,3.82,0,0,1-7.09-2.18c0-9.8,0-19.6,0-29.4,0-.66.3-1.51-.88-1.58-.95-.06-1.83-.71-2.44.87-2.13,5.5-4.48,10.92-6.73,16.38a3.92,3.92,0,0,1-5.1,2.45,3.79,3.79,0,0,1-2.16-5.13c1.2-3.08,2.51-6.13,3.77-9.19Zm13.86-42.33c-10.08-.4-19.24,8.54-19.23,19a19.2,19.2,0,1,0,38.4.18C80.72,112.29,71.46,103.39,61.48,103.76Z"/><path class="cls-1" d="M97.07,50c-7.79,0-15.59,0-23.39,0A55,55,0,0,1,56.6,47.35,55.23,55.23,0,0,1,37.85,36.77,53.6,53.6,0,0,1,27.77,25.31a52.48,52.48,0,0,1-8-21.1,3.74,3.74,0,0,1,3-4.13c2.4-.39,4.27.81,4.62,3A45.08,45.08,0,0,0,33.6,20,46.46,46.46,0,0,0,51.2,36.61,46.38,46.38,0,0,0,68.58,42a49.47,49.47,0,0,0,5,.24h47.75c2.47,0,3.58.68,4.22,2.56a3.68,3.68,0,0,1-3,5,10.71,10.71,0,0,1-1.78.16Z"/><path class="cls-1" d="M136.36,34.62H116.6q-21,0-41.95,0a42,42,0,0,1-13.22-1.86,40.07,40.07,0,0,1-13.58-7.62A38.19,38.19,0,0,1,37.26,10.31a32,32,0,0,1-1.74-5.95A3.59,3.59,0,0,1,38.28.09,3.78,3.78,0,0,1,43,3,31,31,0,0,0,60.7,24.22,30.07,30.07,0,0,0,73.6,26.9q27.95,0,55.9,0c2.43,0,4.87.14,7.3.32,3.3.24,5,3.31,3.4,6C139.46,34.45,138.28,35,136.36,34.62Z"/></svg>