<svg id="Layer_1" data-name="Layer 1" xmlns="http://www.w3.org/2000/svg" viewBox="0 0 184.43 184.61"><defs><style>.cls-1{fill:#00acac;}</style></defs><title>Artboard 1</title><path class="cls-1" d="M153.68,50.25a15.21,15.21,0,0,0,1.65,2.52c6.67,6.72,13.38,13.39,20.07,20.08,2.54,2.54,2.52,4.09,0,6.66l-20.58,20.55c-2.46,2.46-3.81,2.46-6.25,0L129.19,80.76c-2.22-2.21-2.14-2.14-4.28.11-3.41,3.6-7,7.07-10.41,10.62Q102.1,104.24,89.73,117q-12,12.39-24,24.78-11.46,11.85-22.91,23.73c-2.27,2.34-3.08,2.39-5.88.79a57.16,57.16,0,0,1-21.56-21.4c-1.82-3.15-1.77-4,.79-6.44q9-8.79,18-17.53,13.65-13.23,27.33-26.43L88.08,68.89c4.29-4.15,8.51-8.38,12.93-12.4,1.76-1.6,1.37-2.57-.08-4C93,44.65,85.12,36.74,77.23,28.85a13.76,13.76,0,0,1-1.08-1.08c-1-1.17-2.14-2.27-1.5-4s2-1.56,3.42-1.8c12.38-2.22,24.73-4.54,37.13-6.65A5.36,5.36,0,0,1,119,16.64c3.17,2.88,6.1,6,9.15,9,1.13,1.1,2.17,2.24,4.14,1.76.68-.17,1.79.56,2.42,1.18,4.71,4.6,9.35,9.28,14,13.93,1.33,1.33,2.75,2.58,4,4a20.8,20.8,0,0,1,1.83,3.19Zm-46.8,8.34c-.49.39-1,.7-1.36,1.08Q95.19,69.54,84.87,79.43c-4.83,4.64-9.62,9.32-14.44,14-8.43,8.13-16.89,16.24-25.29,24.4-7.73,7.51-15.36,15.13-23.14,22.59-1.7,1.63-1.66,2.84-.38,4.65A60.63,60.63,0,0,0,37,160.28c1.89,1.28,2.9,1,4.34-.51q7.38-8,15-15.86c6.84-7.06,13.75-14,20.64-21.07,1.1-1.13,2.24-2.23,3.33-3.38,4.14-4.39,8.2-8.85,12.4-13.18,7.3-7.53,14.69-15,22-22.47,2.53-2.6,5-5.28,7.5-7.9.73-.77,1.15-1.36.14-2.34-4.61-4.56-9.15-9.19-13.74-13.78A13.27,13.27,0,0,0,106.88,58.59Zm63.91,17.74a5.81,5.81,0,0,0-.52-.83Q143.2,48.44,116.09,21.41a2.58,2.58,0,0,0-1.9-.72c-9.8,1.66-19.59,3.4-29.38,5.15-1.26.22-1.62.93-.79,2a13.08,13.08,0,0,0,1.22,1.25l62.21,62.15c1,1,2,1.92,2.94,2.94s1.65.93,2.55,0c1.45-1.54,3-3,4.48-4.49Z"/><path class="cls-1" d="M184.43,93.05c-.19,2.69-.53,5.86-.63,9a3,3,0,0,1-2.87,3.22q-9.75,1.81-19.5,3.61a3.17,3.17,0,0,0-2.86,2.43c-1.44,4.33-3.33,8.52-4.89,12.82a3.6,3.6,0,0,0,.26,2.75c3.62,5.8,7.35,11.52,11.05,17.27,1.37,2.13,1.32,3.75-.39,5.53q-6.32,6.63-12.72,13.15c-1.94,2-3,2-5.35.46-5.42-3.67-10.84-7.33-16.21-11.07a2.67,2.67,0,0,0-3.14-.17c-4.65,2.21-9.39,4.26-14.15,6.23-1.66.69-2.8,1.43-3.17,3.39-1.12,5.77-2.49,11.48-3.67,17.24-1,5-1.24,5.38-6.34,5.56-5.3.19-10.61.06-15.91,0-2.19,0-3.44-1.08-3.84-3.33-1.09-6.29-2.37-12.54-3.43-18.83-.31-1.88-1.16-2.56-3-3.11-3.73-1.13-7.34-2.67-11-4.15-1.61-.66-1.77-2.08-1.1-3.49s1.86-1.68,3.32-1.18c4.67,1.58,9.39,3,14,4.75a4,4,0,0,1,2,2.55c1.11,5,2,10.09,3,15.16,1.43,8,.58,6.32,7.15,6.55,2.4.08,4.81,0,7.22,0a2.59,2.59,0,0,0,3-2.43c1.28-6.62,2.84-13.2,4.23-19.8a3.14,3.14,0,0,1,2.44-2.73,62.57,62.57,0,0,0,19.24-8.59c1.43-1,2.68-.36,3.85.42,4.29,2.88,8.57,5.77,12.81,8.72,6.27,4.37,4.53,3.88,9.25-.65,2.1-2,3.93-4.28,6-6.35a2,2,0,0,0,.22-2.91c-3.65-5.61-7.28-11.22-10.95-16.81a4.27,4.27,0,0,1-.42-4.84,64.84,64.84,0,0,0,6.4-16.52,2.84,2.84,0,0,1,2.61-2.46c6.43-1.16,12.83-2.53,19.28-3.65a3,3,0,0,0,2.87-3.39c-.07-4.06-.24-8.13-.37-12.2,0-.73,0-1.46,0-2.18-.15-1.8.49-3.11,2.39-3.22s2.64,1.19,2.74,3C184,86,184.19,89.29,184.43,93.05Z"/><path class="cls-1" d="M5.12,90.83v2c0,4.39,0,4.35,4.39,5.26,5.55,1.16,11.08,2.39,16.63,3.57a3.68,3.68,0,0,1,3.27,3.43c.58,3.27,1.79,6.42,2.66,9.65.78,2.89-.52,4.5-3,3.72a2.83,2.83,0,0,1-1.6-1.51A69.74,69.74,0,0,1,25,109.23c-.42-1.78-1.16-2.78-3-3.16-6.34-1.28-12.63-2.77-19-4-2.22-.45-3.08-1.58-3-3.77.21-5.86.26-11.73.53-17.59.14-3.13,1-3.86,4.05-4.4,6.58-1.18,13.15-2.36,19.7-3.69a3.64,3.64,0,0,0,2.07-1.86c2.42-4.95,4.68-10,7.1-14.94a2.79,2.79,0,0,0-.09-3.18c-3.6-5.45-7.09-11-10.62-16.48-1.3-2-1.24-3.56.56-5.28,4.62-4.4,9.22-8.84,14.09-12.95.89-.75,3.35-.6,4.52.1,4,2.35,7.68,5.13,11.49,7.75a13.73,13.73,0,0,1,2.32,1.62c3.54,3.7,7.28,3.21,11.24.76a6.28,6.28,0,0,1,2.48-.79,2.33,2.33,0,0,1,2.83,1.79,2.44,2.44,0,0,1-1.47,3.2c-3,1.4-6.06,2.84-9.17,4.07A3.33,3.33,0,0,1,59,36c-5.63-3.73-11.25-7.49-16.73-11.43-1.82-1.31-3.1-1.36-4.67.18q-4.28,4.18-8.72,8.22a1.72,1.72,0,0,0-.23,2.63q5.44,8.28,10.83,16.6a3.75,3.75,0,0,1-.14,4.49,59,59,0,0,0-8.56,18c-.46,1.72-1.58,2.47-3.43,2.8-5.57,1-11.08,2.25-16.62,3.39A6.46,6.46,0,0,1,9,81c-2.53-.09-3.26.49-3.5,2.93S5.14,88.5,5,90.81Z"/><path class="cls-1" d="M93,0c4.43.44,9.17.85,13.9,1.45a2.63,2.63,0,0,1,1.71,1.64,34.47,34.47,0,0,1,1.33,6.81,3.32,3.32,0,0,1-1.63,2.61,2.32,2.32,0,0,1-3.36-1.43c-.35-1.1-.35-2.32-.78-3.38-.26-.63-1-1.45-1.62-1.48-4.65-.27-9.3-.34-14-.53a1.93,1.93,0,0,0-2.23,1.82c-.48,2.32-1,4.63-1.52,7-.38,1.73-1.2,3.06-3.2,2.84-1.68-.19-2.4-1.72-2-3.89C80.36,9.68,81,5.92,81.91,2.24c.18-.71,1.58-1.45,2.51-1.58C87.13.29,89.89.21,93,0Z"/><path class="cls-1" d="M139.28,26.15a4.59,4.59,0,0,1,1.07-1.57c1.78-1.36,3.69-2.55,5.54-3.81a3.51,3.51,0,0,1,4.76.36c3.69,3.38,7.45,6.69,11,10.18a37.12,37.12,0,0,1,3.6,4.78,5.1,5.1,0,0,1-.31,5.64c-1,1.24-2.05,2.45-3,3.72a2.72,2.72,0,0,1-4,.82c-1.48-1-1.08-2.45-.49-3.71s2.37-2.8,2.12-3.85c-.39-1.68-1.9-3.18-3.15-4.55-2-2.21-4.21-4.24-6.31-6.36-1.33-1.36-2.71-1.7-4.33-.46A13.7,13.7,0,0,1,143.23,29C141.18,29.93,139.13,28.76,139.28,26.15Z"/><path class="cls-1" d="M134.2,123.29a10.24,10.24,0,0,1-1.19,2.4c-2.56,2.66-5.1,5.35-7.86,7.79-2.16,1.92-4.58,1.57-5.15-.57a3.44,3.44,0,0,1,.72-2.78c2.59-2.72,5.27-5.36,8.11-7.82a5.13,5.13,0,0,1,3.43-1C132.94,121.39,133.54,122.58,134.2,123.29Z"/><path class="cls-1" d="M53.34,57.81a9.11,9.11,0,0,1,1.29-2.3c3-2.6,6-5.15,9.15-7.63,1.41-1.12,3-1.28,4.19.37,1,1.39.5,2.69-1.35,4.18-2.7,2.16-5.24,4.54-8,6.62a5,5,0,0,1-3.34.84C54.58,59.79,54,58.58,53.34,57.81Z"/><path class="cls-1" d="M44.92,81.3c-2.5,0-3.85-1.28-3.2-3.11A119.72,119.72,0,0,1,46.84,66c.34-.68,2.37-1,3.38-.75,1.45.41,1.64,2,1.1,3.3-1.51,3.77-3,7.52-4.73,11.21C46.23,80.51,45.26,81,44.92,81.3Z"/><path class="cls-1" d="M144.74,100.93c-1.6,4.67-3,9.06-4.65,13.36-.55,1.42-2.07,1.76-3.53,1.12-1.68-.74-1.47-2.26-1.06-3.56.83-2.67,1.9-5.27,2.79-7.92.43-1.28.45-2.76,1.13-3.86A3.24,3.24,0,0,1,142.07,99C142.92,99.06,143.64,100.06,144.74,100.93Z"/><path class="cls-1" d="M114.15,138.89c-.28.34-.79,1.52-1.59,1.78-4.06,1.31-8.18,2.47-12.33,3.45a2.23,2.23,0,0,1-2.88-2c-.19-1.46,0-2.48,1.87-2.94,3.79-.95,7.49-2.23,11.23-3.37C112.63,135.19,114.08,136.09,114.15,138.89Z"/><path class="cls-1" d="M39.87,94c0-1,0-2,0-3,0-1.73,1-2.46,2.65-2.47s2.28,1,2.44,2.43q.65,5.91,1.28,11.82c.16,1.47-.26,2.68-1.79,3s-3-.06-3.31-1.91c-.59-3.26-1.07-6.54-1.6-9.81Z"/><path class="cls-1" d="M86.66,144.6c-3.33-.74-6.66-1.46-10-2.25-.62-.15-1.5-.43-1.69-.89a5.44,5.44,0,0,1-.51-3.13c.37-1.5,1.81-1.46,3.08-1.2,3.41.69,6.8,1.45,10.21,2.12a2.61,2.61,0,0,1,2.34,2.92C89.89,143.8,88.54,144.68,86.66,144.6Z"/><path class="cls-1" d="M85.71,43.37c-.94.82-1.75,1.93-2.83,2.38a45.06,45.06,0,0,1-5.23,1.36,2.22,2.22,0,0,1-2.92-1.49c-.49-1.24-.7-2.7,1-3.28a48,48,0,0,1,6.65-1.88C84,40.15,85.24,41.35,85.71,43.37Z"/></svg>